<svg width="14" height="16" viewBox="0 0 14 16" fill="none" xmlns="http://www.w3.org/2000/svg">
<g id="Right">
<path id="Vector" d="M5.15748 2.93203L9.76848 7.61703C9.86961 7.71925 9.92633 7.85724 9.92633 8.00103C9.92633 8.14482 9.86961 8.28281 9.76848 8.38503L5.15848 13.07C5.0574 13.1729 5.00076 13.3113 5.00076 13.4555C5.00076 13.5997 5.0574 13.7382 5.15848 13.841C5.20785 13.8917 5.26687 13.9319 5.33205 13.9594C5.39722 13.9869 5.46724 14.0011 5.53798 14.0011C5.60871 14.0011 5.67873 13.9869 5.74391 13.9594C5.80908 13.9319 5.8681 13.8917 5.91748 13.841L10.5275 9.15703C10.8304 8.84851 11.0001 8.43341 11.0001 8.00103C11.0001 7.56865 10.8304 7.15355 10.5275 6.84503L5.91748 2.16103C5.86808 2.11023 5.80901 2.06985 5.74374 2.04227C5.67847 2.0147 5.60833 2.00049 5.53748 2.00049C5.46662 2.00049 5.39649 2.0147 5.33122 2.04227C5.26595 2.06985 5.20687 2.11023 5.15748 2.16103C5.0564 2.26388 4.99976 2.40232 4.99976 2.54653C4.99976 2.69074 5.0564 2.82917 5.15748 2.93203Z" fill="#F2F2F2" fill-opacity="0.94902"/>
</g>
</svg>
