<svg width="14" height="16" viewBox="0 0 14 16" fill="none" xmlns="http://www.w3.org/2000/svg">
<g id="Left">
<path id="Vector" d="M8.84265 13.0689L4.23165 8.38395C4.13052 8.28173 4.07379 8.14374 4.07379 7.99995C4.07379 7.85616 4.13052 7.71817 4.23165 7.61595L8.84165 2.93095C8.94272 2.82809 8.99936 2.68965 8.99936 2.54545C8.99936 2.40124 8.94272 2.2628 8.84165 2.15995C8.79227 2.1093 8.73325 2.06905 8.66808 2.04156C8.6029 2.01408 8.53288 1.99992 8.46214 1.99992C8.39141 1.99992 8.32139 2.01408 8.25622 2.04156C8.19104 2.06905 8.13202 2.1093 8.08265 2.15995L3.47265 6.84395C3.16972 7.15247 3 7.56757 3 7.99995C3 8.43232 3.16972 8.84743 3.47265 9.15595L8.08265 13.8399C8.13204 13.8907 8.19112 13.9311 8.25638 13.9587C8.32165 13.9863 8.39179 14.0005 8.46265 14.0005C8.5335 14.0005 8.60364 13.9863 8.66891 13.9587C8.73417 13.9311 8.79325 13.8907 8.84265 13.8399C8.94372 13.7371 9.00036 13.5987 9.00036 13.4544C9.00036 13.3102 8.94372 13.1718 8.84265 13.0689Z" fill="#F2F2F2" fill-opacity="0.94902"/>
</g>
</svg>
