<svg xmlns="http://www.w3.org/2000/svg" width="20" height="20" viewBox="0 0 20 20" fill="none">
  <path fill-rule="evenodd" clip-rule="evenodd" d="M4.16669 18.3333C2.78598 18.3333 1.66669 17.214 1.66669 15.8333V4.16663C1.66669 2.78591 2.78598 1.66663 4.16669 1.66663H15.8334C17.2141 1.66663 18.3334 2.78591 18.3334 4.16663V15.8333C18.3334 17.214 17.2141 18.3333 15.8334 18.3333H4.16669ZM4.16669 3.33329C3.70645 3.33329 3.33335 3.70639 3.33335 4.16663V6.66663H16.6667V4.16663C16.6667 3.70639 16.2936 3.33329 15.8334 3.33329H4.16669ZM6.66669 8.33329H3.33335V15.8333C3.33335 16.2935 3.70645 16.6666 4.16669 16.6666H6.66669V8.33329ZM8.33335 16.6666V8.33329H16.6667V15.8333C16.6667 16.2935 16.2936 16.6666 15.8334 16.6666H8.33335Z" fill="white"/>
</svg>