<svg xmlns="http://www.w3.org/2000/svg" width="29" height="32" viewBox="0 0 29 32" fill="none">
  <path d="M19.0744 0.740777L19.0744 0.740808L19.0783 0.741666C19.2467 0.779003 19.4067 0.850516 19.5487 0.952377L19.6944 0.749222L19.5487 0.952378C19.6908 1.05425 19.8121 1.18451 19.9055 1.33586C19.9988 1.48723 20.0622 1.65653 20.0915 1.83394C20.1209 2.01135 20.1157 2.19302 20.0761 2.36827C20.0366 2.54352 19.9636 2.70855 19.8618 2.85382C19.76 2.99908 19.6314 3.12159 19.4839 3.21453C19.3364 3.30746 19.1727 3.36905 19.0025 3.39604C18.8322 3.42302 18.6585 3.4149 18.4912 3.37212L18.4912 3.37209L18.4874 3.37117C17.7077 3.18484 16.9153 3.05979 16.1171 2.9971L16.1171 2.99704L16.1116 2.99673L15.4593 2.95999L15.4582 2.95993L15.4291 3.45908L15.4301 3.45914L15.9558 3.49094C18.1628 3.66356 20.2964 4.38525 22.173 5.59439L22.5958 5.87791L22.769 5.99403L22.9143 5.84455L23.857 4.87497L23.8578 4.87412C24.0928 4.63012 24.4081 4.48901 24.7388 4.47746C25.0695 4.46592 25.3932 4.58471 25.6434 4.81149C25.8938 5.03846 26.0518 5.35668 26.0828 5.70167C26.1136 6.04431 26.0167 6.38528 25.8132 6.65564L25.6942 6.79433L24.9296 7.58076L24.7656 7.74945L24.924 7.92339C27.0629 10.2715 28.3606 13.3004 28.6015 16.5107C28.8424 19.7211 28.0121 22.9195 26.2485 25.578C24.485 28.2364 21.8941 30.1957 18.9044 31.1342C15.9148 32.0728 12.7036 31.9352 9.80009 30.7439C6.89642 29.5525 4.47276 27.378 2.93027 24.5775C1.38771 21.7769 0.81909 18.5184 1.31894 15.3399C1.81879 12.1614 3.35694 9.25436 5.67806 7.09783C7.99877 4.94166 10.9635 3.6644 14.0831 3.47514C14.0835 3.47512 14.0838 3.4751 14.0842 3.47507L14.3915 3.4592L14.3743 2.95957L14.281 2.96117L14.281 2.9611L14.2753 2.96133C13.4577 2.99386 12.6578 3.09145 11.879 3.2442L11.8789 3.24414L11.8738 3.24526L11.3014 3.37006L11.3005 3.37025C10.9675 3.44405 10.6192 3.38047 10.3303 3.19196C10.0411 3.00328 9.83378 2.70386 9.75551 2.35688C9.67721 2.0098 9.73492 1.64529 9.9152 1.34253C10.095 1.04057 10.3815 0.825243 10.7116 0.740281C12.0549 0.420267 13.4565 0.25 14.892 0.25C16.3297 0.25 17.7305 0.420441 19.0744 0.740777ZM14.892 9.34979C14.4108 9.34979 13.9508 9.54646 13.6128 9.89414C13.275 10.2416 13.0864 10.7114 13.0864 11.1998V17.5996C13.0864 18.088 13.275 18.5578 13.6128 18.9052C13.9508 19.2529 14.4108 19.4496 14.892 19.4496C15.3731 19.4496 15.8331 19.2529 16.1711 18.9052C16.5089 18.5578 16.6975 18.088 16.6975 17.5996V11.1998C16.6975 10.7114 16.5089 10.2416 16.1711 9.89414C15.8331 9.54646 15.3731 9.34979 14.892 9.34979Z" fill="#F2F2F2" fill-opacity="0.94902"/>
  <path d="M19.0744 0.740777L19.0744 0.740808L19.0783 0.741666C19.2467 0.779003 19.4067 0.850516 19.5487 0.952377L19.6944 0.749222L19.5487 0.952378C19.6908 1.05425 19.8121 1.18451 19.9055 1.33586C19.9988 1.48723 20.0622 1.65653 20.0915 1.83394C20.1209 2.01135 20.1157 2.19302 20.0761 2.36827C20.0366 2.54352 19.9636 2.70855 19.8618 2.85382C19.76 2.99908 19.6314 3.12159 19.4839 3.21453C19.3364 3.30746 19.1727 3.36905 19.0025 3.39604C18.8322 3.42302 18.6585 3.4149 18.4912 3.37212L18.4912 3.37209L18.4874 3.37117C17.7077 3.18484 16.9153 3.05979 16.1171 2.9971L16.1171 2.99704L16.1116 2.99673L15.4593 2.95999L15.4582 2.95993L15.4291 3.45908L15.4301 3.45914L15.9558 3.49094C18.1628 3.66356 20.2964 4.38525 22.173 5.59439L22.5958 5.87791L22.769 5.99403L22.9143 5.84455L23.857 4.87497L23.8578 4.87412C24.0928 4.63012 24.4081 4.48901 24.7388 4.47746C25.0695 4.46592 25.3932 4.58471 25.6434 4.81149C25.8938 5.03846 26.0518 5.35668 26.0828 5.70167C26.1136 6.04431 26.0167 6.38528 25.8132 6.65564L25.6942 6.79433L24.9296 7.58076L24.7656 7.74945L24.924 7.92339C27.0629 10.2715 28.3606 13.3004 28.6015 16.5107C28.8424 19.7211 28.0121 22.9195 26.2485 25.578C24.485 28.2364 21.8941 30.1957 18.9044 31.1342C15.9148 32.0728 12.7036 31.9352 9.80009 30.7439C6.89642 29.5525 4.47276 27.378 2.93027 24.5775C1.38771 21.7769 0.81909 18.5184 1.31894 15.3399C1.81879 12.1614 3.35694 9.25436 5.67806 7.09783C7.99877 4.94166 10.9635 3.6644 14.0831 3.47514C14.0835 3.47512 14.0838 3.4751 14.0842 3.47507L14.3915 3.4592L14.3743 2.95957L14.281 2.96117L14.281 2.9611L14.2753 2.96133C13.4577 2.99386 12.6578 3.09145 11.879 3.2442L11.8789 3.24414L11.8738 3.24526L11.3014 3.37006L11.3005 3.37025C10.9675 3.44405 10.6192 3.38047 10.3303 3.19196C10.0411 3.00328 9.83378 2.70386 9.75551 2.35688C9.67721 2.0098 9.73492 1.64529 9.9152 1.34253C10.095 1.04057 10.3815 0.825243 10.7116 0.740281C12.0549 0.420267 13.4565 0.25 14.892 0.25C16.3297 0.25 17.7305 0.420441 19.0744 0.740777ZM14.892 9.34979C14.4108 9.34979 13.9508 9.54646 13.6128 9.89414C13.275 10.2416 13.0864 10.7114 13.0864 11.1998V17.5996C13.0864 18.088 13.275 18.5578 13.6128 18.9052C13.9508 19.2529 14.4108 19.4496 14.892 19.4496C15.3731 19.4496 15.8331 19.2529 16.1711 18.9052C16.5089 18.5578 16.6975 18.088 16.6975 17.5996V11.1998C16.6975 10.7114 16.5089 10.2416 16.1711 9.89414C15.8331 9.54646 15.3731 9.34979 14.892 9.34979Z" fill="url(#paint0_linear_167_2283)" fill-opacity="0.2"/>
  <path d="M19.0744 0.740777L19.0744 0.740808L19.0783 0.741666C19.2467 0.779003 19.4067 0.850516 19.5487 0.952377L19.6944 0.749222L19.5487 0.952378C19.6908 1.05425 19.8121 1.18451 19.9055 1.33586C19.9988 1.48723 20.0622 1.65653 20.0915 1.83394C20.1209 2.01135 20.1157 2.19302 20.0761 2.36827C20.0366 2.54352 19.9636 2.70855 19.8618 2.85382C19.76 2.99908 19.6314 3.12159 19.4839 3.21453C19.3364 3.30746 19.1727 3.36905 19.0025 3.39604C18.8322 3.42302 18.6585 3.4149 18.4912 3.37212L18.4912 3.37209L18.4874 3.37117C17.7077 3.18484 16.9153 3.05979 16.1171 2.9971L16.1171 2.99704L16.1116 2.99673L15.4593 2.95999L15.4582 2.95993L15.4291 3.45908L15.4301 3.45914L15.9558 3.49094C18.1628 3.66356 20.2964 4.38525 22.173 5.59439L22.5958 5.87791L22.769 5.99403L22.9143 5.84455L23.857 4.87497L23.8578 4.87412C24.0928 4.63012 24.4081 4.48901 24.7388 4.47746C25.0695 4.46592 25.3932 4.58471 25.6434 4.81149C25.8938 5.03846 26.0518 5.35668 26.0828 5.70167C26.1136 6.04431 26.0167 6.38528 25.8132 6.65564L25.6942 6.79433L24.9296 7.58076L24.7656 7.74945L24.924 7.92339C27.0629 10.2715 28.3606 13.3004 28.6015 16.5107C28.8424 19.7211 28.0121 22.9195 26.2485 25.578C24.485 28.2364 21.8941 30.1957 18.9044 31.1342C15.9148 32.0728 12.7036 31.9352 9.80009 30.7439C6.89642 29.5525 4.47276 27.378 2.93027 24.5775C1.38771 21.7769 0.81909 18.5184 1.31894 15.3399C1.81879 12.1614 3.35694 9.25436 5.67806 7.09783C7.99877 4.94166 10.9635 3.6644 14.0831 3.47514C14.0835 3.47512 14.0838 3.4751 14.0842 3.47507L14.3915 3.4592L14.3743 2.95957L14.281 2.96117L14.281 2.9611L14.2753 2.96133C13.4577 2.99386 12.6578 3.09145 11.879 3.2442L11.8789 3.24414L11.8738 3.24526L11.3014 3.37006L11.3005 3.37025C10.9675 3.44405 10.6192 3.38047 10.3303 3.19196C10.0411 3.00328 9.83378 2.70386 9.75551 2.35688C9.67721 2.0098 9.73492 1.64529 9.9152 1.34253C10.095 1.04057 10.3815 0.825243 10.7116 0.740281C12.0549 0.420267 13.4565 0.25 14.892 0.25C16.3297 0.25 17.7305 0.420441 19.0744 0.740777ZM14.892 9.34979C14.4108 9.34979 13.9508 9.54646 13.6128 9.89414C13.275 10.2416 13.0864 10.7114 13.0864 11.1998V17.5996C13.0864 18.088 13.275 18.5578 13.6128 18.9052C13.9508 19.2529 14.4108 19.4496 14.892 19.4496C15.3731 19.4496 15.8331 19.2529 16.1711 18.9052C16.5089 18.5578 16.6975 18.088 16.6975 17.5996V11.1998C16.6975 10.7114 16.5089 10.2416 16.1711 9.89414C15.8331 9.54646 15.3731 9.34979 14.892 9.34979Z" stroke="#D5D5D5" stroke-width="0.5"/>
  <defs>
    <linearGradient id="paint0_linear_167_2283" x1="-4.10767" y1="32" x2="13.8923" y2="20" gradientUnits="userSpaceOnUse">
      <stop stop-color="#1C6BE1"/>
      <stop offset="1" stop-color="#096BFF" stop-opacity="0"/>
    </linearGradient>
  </defs>
</svg>