<svg width="20" height="17" viewBox="0 0 20 17" fill="none" xmlns="http://www.w3.org/2000/svg">
<g id="mingcute:more-1-fill" clip-path="url(#clip0_400_2447)">
<g id="Group">
<path id="Vector" d="M4.75 7.5C5.14782 7.5 5.52936 7.65804 5.81066 7.93934C6.09196 8.22064 6.25 8.60218 6.25 9C6.25 9.39782 6.09196 9.77936 5.81066 10.0607C5.52936 10.342 5.14782 10.5 4.75 10.5C4.35218 10.5 3.97064 10.342 3.68934 10.0607C3.40804 9.77936 3.25 9.39782 3.25 9C3.25 8.60218 3.40804 8.22064 3.68934 7.93934C3.97064 7.65804 4.35218 7.5 4.75 7.5ZM10 7.5C10.3978 7.5 10.7794 7.65804 11.0607 7.93934C11.342 8.22064 11.5 8.60218 11.5 9C11.5 9.39782 11.342 9.77936 11.0607 10.0607C10.7794 10.342 10.3978 10.5 10 10.5C9.60218 10.5 9.22064 10.342 8.93934 10.0607C8.65804 9.77936 8.5 9.39782 8.5 9C8.5 8.60218 8.65804 8.22064 8.93934 7.93934C9.22064 7.65804 9.60218 7.5 10 7.5ZM15.25 7.5C15.6478 7.5 16.0294 7.65804 16.3107 7.93934C16.592 8.22064 16.75 8.60218 16.75 9C16.75 9.39782 16.592 9.77936 16.3107 10.0607C16.0294 10.342 15.6478 10.5 15.25 10.5C14.8522 10.5 14.4706 10.342 14.1893 10.0607C13.908 9.77936 13.75 9.39782 13.75 9C13.75 8.60218 13.908 8.22064 14.1893 7.93934C14.4706 7.65804 14.8522 7.5 15.25 7.5Z" fill="url(#paint0_linear_400_2447)"/>
</g>
</g>
<defs>
<linearGradient id="paint0_linear_400_2447" x1="3.25" y1="9" x2="16.75" y2="9" gradientUnits="userSpaceOnUse">
<stop stop-color="#298EF0"/>
<stop offset="1" stop-color="#9CCEFF"/>
</linearGradient>
<clipPath id="clip0_400_2447">
<rect width="24" height="17" fill="white" transform="translate(-2)"/>
</clipPath>
</defs>
</svg>
