<svg width="15" height="16" viewBox="0 0 15 16" fill="none" xmlns="http://www.w3.org/2000/svg">
<path id="Vector" d="M9.24999 7.9989V14.8939C9.28499 15.1564 9.19749 15.4364 8.99624 15.6202C8.91529 15.7013 8.81914 15.7656 8.71329 15.8095C8.60744 15.8534 8.49396 15.876 8.37937 15.876C8.26477 15.876 8.1513 15.8534 8.04545 15.8095C7.93959 15.7656 7.84344 15.7013 7.76249 15.6202L6.00374 13.8614C5.90831 13.7681 5.83575 13.654 5.79173 13.528C5.74771 13.402 5.73342 13.2676 5.74999 13.1352V7.9989H5.72374L0.683743 1.5414C0.54165 1.35899 0.477535 1.12775 0.505407 0.898215C0.533279 0.668678 0.650873 0.459504 0.832493 0.316401C0.998743 0.193901 1.18249 0.123901 1.37499 0.123901H13.625C13.8175 0.123901 14.0012 0.193901 14.1675 0.316401C14.3491 0.459504 14.4667 0.668678 14.4946 0.898215C14.5225 1.12775 14.4583 1.35899 14.3162 1.5414L9.27624 7.9989H9.24999Z" fill="#F2F2F2" fill-opacity="0.94902"/>
</svg>
