<svg width="24" height="16" viewBox="0 0 24 16" fill="none" xmlns="http://www.w3.org/2000/svg">
<path id="Vector" d="M7.2 8C9.52125 8 11.4 6.21071 11.4 4C11.4 1.78929 9.52125 0 7.2 0C4.87875 0 3 1.78929 3 4C3 6.21071 4.87875 8 7.2 8ZM10.08 9.14286H9.76875C8.98875 9.5 8.1225 9.71429 7.2 9.71429C6.2775 9.71429 5.415 9.5 4.63125 9.14286H4.32C1.935 9.14286 0 10.9857 0 13.2571V14.2857C0 15.2321 0.80625 16 1.8 16H12.6C13.5938 16 14.4 15.2321 14.4 14.2857V13.2571C14.4 10.9857 12.465 9.14286 10.08 9.14286ZM18 8C19.9875 8 21.6 6.46429 21.6 4.57143C21.6 2.67857 19.9875 1.14286 18 1.14286C16.0125 1.14286 14.4 2.67857 14.4 4.57143C14.4 6.46429 16.0125 8 18 8ZM19.8 9.14286H19.6575C19.1363 9.31429 18.585 9.42857 18 9.42857C17.415 9.42857 16.8638 9.31429 16.3425 9.14286H16.2C15.435 9.14286 14.73 9.35357 14.1112 9.69286C15.0262 10.6321 15.6 11.8786 15.6 13.2571V14.6286C15.6 14.7071 15.5813 14.7821 15.5775 14.8571H22.2C23.1938 14.8571 24 14.0893 24 13.1429C24 10.9321 22.1213 9.14286 19.8 9.14286Z" fill="#F2F2F2"/>
</svg>
