<svg xmlns="http://www.w3.org/2000/svg" width="36" height="28" viewBox="0 0 36 28" fill="none">
  <path d="M16.85 7C16.85 10.7561 14.1197 13.75 10.8 13.75C7.48032 13.75 4.75 10.7561 4.75 7C4.75 3.24389 7.48032 0.25 10.8 0.25C14.1197 0.25 16.85 3.24389 16.85 7ZM10.8 17.25C12.208 17.25 13.5282 16.8741 14.7153 16.25H15.12C18.5353 16.25 21.35 19.3376 21.35 23.2V25C21.35 26.5436 20.2284 27.75 18.9 27.75H2.7C1.37157 27.75 0.25 26.5436 0.25 25V23.2C0.25 19.3376 3.0647 16.25 6.48 16.25H6.88498C8.07686 16.8739 9.39165 17.25 10.8 17.25ZM32.15 8C32.15 11.1999 29.8191 13.75 27 13.75C24.1809 13.75 21.85 11.1999 21.85 8C21.85 4.80014 24.1809 2.25 27 2.25C29.8191 2.25 32.15 4.80014 32.15 8ZM27 16.75C27.8995 16.75 28.7428 16.5486 29.5323 16.25H29.7C33.0197 16.25 35.75 19.2439 35.75 23C35.75 24.5436 34.6284 25.75 33.3 25.75H23.6423C23.6467 25.7031 23.65 25.6525 23.65 25.6V23.2C23.65 20.8357 22.8434 18.6862 21.5408 17.0271C22.3753 16.5415 23.3041 16.25 24.3 16.25H24.4677C25.2572 16.5486 26.1005 16.75 27 16.75Z" fill="#F2F2F2" fill-opacity="0.84"/>
  <path d="M16.85 7C16.85 10.7561 14.1197 13.75 10.8 13.75C7.48032 13.75 4.75 10.7561 4.75 7C4.75 3.24389 7.48032 0.25 10.8 0.25C14.1197 0.25 16.85 3.24389 16.85 7ZM10.8 17.25C12.208 17.25 13.5282 16.8741 14.7153 16.25H15.12C18.5353 16.25 21.35 19.3376 21.35 23.2V25C21.35 26.5436 20.2284 27.75 18.9 27.75H2.7C1.37157 27.75 0.25 26.5436 0.25 25V23.2C0.25 19.3376 3.0647 16.25 6.48 16.25H6.88498C8.07686 16.8739 9.39165 17.25 10.8 17.25ZM32.15 8C32.15 11.1999 29.8191 13.75 27 13.75C24.1809 13.75 21.85 11.1999 21.85 8C21.85 4.80014 24.1809 2.25 27 2.25C29.8191 2.25 32.15 4.80014 32.15 8ZM27 16.75C27.8995 16.75 28.7428 16.5486 29.5323 16.25H29.7C33.0197 16.25 35.75 19.2439 35.75 23C35.75 24.5436 34.6284 25.75 33.3 25.75H23.6423C23.6467 25.7031 23.65 25.6525 23.65 25.6V23.2C23.65 20.8357 22.8434 18.6862 21.5408 17.0271C22.3753 16.5415 23.3041 16.25 24.3 16.25H24.4677C25.2572 16.5486 26.1005 16.75 27 16.75Z" fill="url(#paint0_linear_167_2294)" fill-opacity="0.25"/>
  <path d="M16.85 7C16.85 10.7561 14.1197 13.75 10.8 13.75C7.48032 13.75 4.75 10.7561 4.75 7C4.75 3.24389 7.48032 0.25 10.8 0.25C14.1197 0.25 16.85 3.24389 16.85 7ZM10.8 17.25C12.208 17.25 13.5282 16.8741 14.7153 16.25H15.12C18.5353 16.25 21.35 19.3376 21.35 23.2V25C21.35 26.5436 20.2284 27.75 18.9 27.75H2.7C1.37157 27.75 0.25 26.5436 0.25 25V23.2C0.25 19.3376 3.0647 16.25 6.48 16.25H6.88498C8.07686 16.8739 9.39165 17.25 10.8 17.25ZM32.15 8C32.15 11.1999 29.8191 13.75 27 13.75C24.1809 13.75 21.85 11.1999 21.85 8C21.85 4.80014 24.1809 2.25 27 2.25C29.8191 2.25 32.15 4.80014 32.15 8ZM27 16.75C27.8995 16.75 28.7428 16.5486 29.5323 16.25H29.7C33.0197 16.25 35.75 19.2439 35.75 23C35.75 24.5436 34.6284 25.75 33.3 25.75H23.6423C23.6467 25.7031 23.65 25.6525 23.65 25.6V23.2C23.65 20.8357 22.8434 18.6862 21.5408 17.0271C22.3753 16.5415 23.3041 16.25 24.3 16.25H24.4677C25.2572 16.5486 26.1005 16.75 27 16.75Z" stroke="#D4D4D4" stroke-width="0.5"/>
  <defs>
    <linearGradient id="paint0_linear_167_2294" x1="2.78422" y1="34.9999" x2="8.37418" y2="15.8966" gradientUnits="userSpaceOnUse">
      <stop stop-color="#0E8BFF"/>
      <stop offset="0.723958" stop-color="#0A37D8" stop-opacity="0"/>
    </linearGradient>
  </defs>
</svg>