<svg width="25" height="23" viewBox="0 0 25 23" fill="none" xmlns="http://www.w3.org/2000/svg">
<path d="M12.6666 19.4848L12.5454 19.6061L12.4121 19.4848C6.6545 14.2606 2.84844 10.8061 2.84844 7.30302C2.84844 4.87878 4.66662 3.0606 7.09086 3.0606C8.95753 3.0606 10.7757 4.27272 11.4181 5.9212H13.6727C14.3151 4.27272 16.1333 3.0606 18 3.0606C20.4242 3.0606 22.2424 4.87878 22.2424 7.30302C22.2424 10.8061 18.4363 14.2606 12.6666 19.4848ZM18 0.636353C15.8909 0.636353 13.8666 1.61817 12.5454 3.15756C11.2242 1.61817 9.19995 0.636353 7.09086 0.636353C3.35753 0.636353 0.424194 3.55756 0.424194 7.30302C0.424194 11.8727 4.54541 15.6182 10.7878 21.2788L12.5454 22.8788L14.303 21.2788C20.5454 15.6182 24.6666 11.8727 24.6666 7.30302C24.6666 3.55756 21.7333 0.636353 18 0.636353Z" fill="#E8E8E8"/>
</svg>
