<svg xmlns="http://www.w3.org/2000/svg" width="33" height="32" viewBox="0 0 33 32" fill="none">
  <path d="M20.1596 19.1991L21.6439 19.3494V31L17.544 26.7783V20.0619L18.7348 20.6227L20.1596 19.1991ZM13.6251 19.1991L12.1399 19.3494V31L16.2399 26.7783V20.0619L15.0491 20.6227L13.6251 19.1991ZM24.8688 11.9L25.3491 13.5122L23.9072 14.4497L23.7864 16.1248L22.099 16.5299L21.3928 18.0627L19.6629 17.8865L18.455 19.0898L16.8923 18.3537L15.3297 19.0898L14.1218 17.8825L12.3919 18.0588L11.6856 16.526L9.99822 16.1248L9.87747 14.452L8.43144 13.5114L8.91184 11.8992L7.89233 10.541L8.91511 9.18431L8.43144 7.57525L9.8742 6.63779L9.99496 4.96493L11.6856 4.56385L12.3919 3.03108L14.1218 3.20722L15.3297 2L16.8923 2.73616L18.455 2L19.6629 3.20722L21.3928 3.03108L22.099 4.56385L23.7864 4.96891L23.9072 6.6417L25.3491 7.57916L24.8688 9.19143L25.8923 10.541L24.8688 11.9ZM21.6513 10.541C21.6513 9.64023 21.3743 8.75969 20.8553 8.01072C20.3363 7.26176 19.5987 6.67801 18.7357 6.3333C17.8726 5.98859 16.923 5.8984 16.0068 6.07413C15.0906 6.24986 14.2491 6.68362 13.5885 7.32057C12.928 7.95751 12.4782 8.76902 12.2959 9.65249C12.1137 10.536 12.2072 11.4517 12.5647 12.2839C12.9222 13.1161 13.5275 13.8274 14.3042 14.3278C15.0809 14.8283 15.9941 15.0954 16.9282 15.0954C18.1803 15.0935 19.3804 14.6131 20.2658 13.7594C21.1511 12.9057 21.6493 11.7483 21.6513 10.541ZM16.9282 7.2449C16.2522 7.2449 15.5913 7.43821 15.0292 7.80038C14.4671 8.16255 14.029 8.67732 13.7703 9.27959C13.5116 9.88186 13.4439 10.5446 13.5758 11.1839C13.7077 11.8233 14.0332 12.4106 14.5112 12.8716C14.9893 13.3325 15.5983 13.6465 16.2613 13.7736C16.9244 13.9008 17.6117 13.8356 18.2362 13.5861C18.8608 13.3366 19.3946 12.9142 19.7702 12.3722C20.1458 11.8301 20.3463 11.1929 20.3463 10.541C20.3437 9.66782 19.9827 8.83115 19.3422 8.21394C18.7016 7.59672 17.8337 7.24918 16.9282 7.2473V7.2449Z" fill="#F2F2F2" fill-opacity="0.94902" stroke="#D4D4D4" stroke-width="0.5"/>
</svg>