<svg width="25" height="24" viewBox="0 0 25 24" fill="none" xmlns="http://www.w3.org/2000/svg">
<g id="ri:search-line">
<path id="Vector" d="M18.53 16.617L22.813 20.899L21.398 22.314L17.116 18.031C15.5228 19.3082 13.541 20.0029 11.499 20C6.53102 20 2.49902 15.968 2.49902 11C2.49902 6.032 6.53102 2 11.499 2C16.467 2 20.499 6.032 20.499 11C20.5019 13.042 19.8072 15.0237 18.53 16.617ZM16.524 15.875C17.7931 14.5699 18.5019 12.8204 18.499 11C18.499 7.133 15.366 4 11.499 4C7.63202 4 4.49902 7.133 4.49902 11C4.49902 14.867 7.63202 18 11.499 18C13.3195 18.0029 15.0689 17.2941 16.374 16.025L16.524 15.875Z" fill="#F2F2F2"/>
</g>
</svg>
