<svg width="20" height="15" viewBox="0 0 20 15" fill="none" xmlns="http://www.w3.org/2000/svg">
<g id="Stats">
<path id="Vector" d="M16.4 7.54545C16.2077 7.54702 16.0171 7.58797 15.8376 7.66636L13.9192 5.88182C13.9664 5.68727 14 5.48545 14 5.27273C14 4.01273 13.1088 3 12 3C10.8912 3 10 4.01273 10 5.27273C10 5.63273 10.08 5.96818 10.2096 6.27L7.8824 9.39545C7.78925 9.37564 7.69476 9.365 7.6 9.36364C7.4568 9.36364 7.3216 9.39091 7.1904 9.43091L5.14 7.10091C5.176 6.95273 5.2 6.79909 5.2 6.63636C5.2 5.62909 4.4864 4.81818 3.6 4.81818C2.7136 4.81818 2 5.62909 2 6.63636C2 7.64364 2.7136 8.45455 3.6 8.45455C3.7432 8.45455 3.8784 8.42727 4.0096 8.38727L6.06 10.7173C6.02154 10.8683 6.00136 11.0246 6 11.1818C6 12.1891 6.7136 13 7.6 13C8.4864 13 9.2 12.1891 9.2 11.1818C9.2 10.9664 9.1616 10.7636 9.1016 10.5718L11.432 7.44273C11.6136 7.50273 11.8016 7.54545 12 7.54545C12.3157 7.54347 12.6265 7.45589 12.9064 7.29L14.8256 9.07455C14.8105 9.17002 14.802 9.26667 14.8 9.36364C14.8 10.3709 15.5136 11.1818 16.4 11.1818C17.2864 11.1818 18 10.3709 18 9.36364C18 8.35636 17.2864 7.54545 16.4 7.54545Z" fill="url(#paint0_linear_400_2435)"/>
</g>
<defs>
<linearGradient id="paint0_linear_400_2435" x1="10" y1="3" x2="10" y2="13" gradientUnits="userSpaceOnUse">
<stop stop-color="#2196F3"/>
<stop offset="1" stop-color="#4A6CE3"/>
</linearGradient>
</defs>
</svg>
